<?xml version="1.0" standalone="no"?>
<!DOCTYPE svg PUBLIC "-//W3C//DTD SVG 20010904//EN"
 "http://www.w3.org/TR/2001/REC-SVG-20010904/DTD/svg10.dtd">
<svg version="1.0" xmlns="http://www.w3.org/2000/svg"
 width="700.000000pt" height="700.000000pt" viewBox="0 0 700.000000 700.000000"
 preserveAspectRatio="xMidYMid meet">
<metadata>
Created by potrace 1.11, written by Peter Selinger 2001-2013
</metadata>
<g transform="translate(0.000000,700.000000) scale(0.100000,-0.100000)"
fill="#000000" stroke="none">
<path d="M3397 5620 c-95 -24 -183 -98 -225 -190 -22 -46 -27 -74 -30 -167 -3
-82 -8 -113 -17 -113 -25 0 -171 -53 -250 -91 -137 -65 -261 -155 -385 -279
-226 -226 -366 -494 -415 -795 -12 -73 -15 -215 -15 -739 l0 -649 -220 -216
-221 -216 1 -107 0 -108 1840 0 1840 0 0 108 0 107 -215 215 -214 214 -4 685
c-3 657 -4 690 -24 776 -103 437 -377 793 -760 988 -98 50 -247 107 -278 107
-9 0 -14 32 -17 113 -6 134 -24 182 -94 257 -79 84 -198 124 -297 100z"/>
<path d="M3037 1683 c44 -342 433 -497 704 -281 77 61 140 179 152 286 l5 42
-434 0 -434 0 7 -47z"/>
</g>
</svg>
